<svg width="138" height="51" viewBox="0 0 107 40" xmlns="http://www.w3.org/2000/svg">
    <mask id="mask0_1769_33834" style="mask-type:alpha" maskUnits="userSpaceOnUse" x="0" y="0" width="41" height="40">
        <path fill-rule="evenodd" clip-rule="evenodd" d="M0 0H40.921V40H0V0Z" fill="red"/>
    </mask>
    <g mask="url(#mask0_1769_33834)">
        <path fill-rule="evenodd" clip-rule="evenodd" d="M12.7926 7.10038C12.9296 7.04952 13.0501 7.01773 13.1576 6.96224C14.0808 6.48943 14.2734 4.45079 13.4382 3.83983C13.2704 3.71672 13.007 3.63059 12.8055 3.65718C12.3549 3.71729 11.9119 3.84561 11.4736 3.97104C10.9184 4.12999 10.7843 4.38663 10.9479 4.94556C11.0448 5.27734 11.1647 5.60334 11.2716 5.9328C11.3726 6.2432 11.2728 6.65127 11.7441 6.77323C12.1009 6.86571 12.4488 6.99172 12.7926 7.10038ZM12.1801 29.887C12.7572 29.9205 12.9616 29.802 13.1565 29.3385C13.2504 29.1148 13.2965 28.8605 13.4347 28.6691C14.1069 27.7386 13.847 26.7906 13.5133 25.8462C13.3024 25.2491 13.0454 25.156 12.4205 25.2427C11.9102 25.3132 11.7779 25.6976 11.6255 26.0513C11.1582 27.1322 10.7979 28.2304 11.4093 29.3818C11.5794 29.7015 11.7678 29.9986 12.1801 29.887ZM33.5065 19.1956C33.4374 18.6147 33.3482 18.0679 33.3146 17.5176C33.2709 16.8078 32.8899 16.3679 32.2413 16.1286C31.8137 15.9708 31.3754 15.8367 30.9354 15.7148C30.3234 15.5448 29.9241 15.8951 30.0121 16.5171C30.0629 16.876 30.1143 17.2373 30.2017 17.5881C30.3878 18.3366 30.4817 19.1464 31.3364 19.5187C31.6908 19.673 32.0434 19.836 32.4097 19.9591C33.096 20.1897 33.5095 19.8799 33.5065 19.1956ZM21.1144 0.0181529C19.5373 2.08685 18.0901 4.09139 15.9312 5.47572C15.2933 5.88495 14.7794 6.4936 14.2561 7.05311C13.8633 7.47332 13.4487 7.80452 12.8763 7.95885C11.9572 8.20739 11.0192 8.42415 10.145 8.78425C9.56618 9.02297 9.01981 9.42584 8.57563 9.86802C7.68431 10.7553 6.85323 11.7038 6.03456 12.6581C5.03397 13.8239 3.7085 14.4291 2.27022 14.8638C2.15209 14.8996 2.00796 14.9007 1.91877 14.9701C1.80418 15.0603 1.65533 15.21 1.66478 15.3221C1.67423 15.4296 1.85321 15.5498 1.98315 15.6129C2.08416 15.6614 2.22533 15.6354 2.34819 15.6342C2.95067 15.6296 3.56083 15.5585 4.15328 15.6285C5.67603 15.8082 6.88513 15.184 8.05938 14.3528C9.29093 13.4806 10.568 12.6702 11.8172 11.8223C12.1161 11.6194 12.3506 11.6373 12.6158 11.8795C13.5455 12.7269 14.4918 13.5569 15.4227 14.4037C15.9425 14.8765 16.1262 15.4811 16.0116 16.1556C15.4546 19.4295 15.428 22.7108 15.9809 25.9795C16.1557 27.01 16.591 27.999 16.9053 29.0071C16.9567 29.1724 16.9714 29.355 17.0529 29.503C17.1368 29.6539 17.304 29.8949 17.3955 29.8787C17.5709 29.8487 17.8261 29.6885 17.8604 29.5406C18.1096 28.4655 18.3908 27.3886 18.5137 26.2968C18.8397 23.4073 19.0931 20.5103 19.3695 17.6157C19.4174 17.1139 19.6088 16.8544 20.1923 16.8463C22.0754 16.8209 23.7889 16.2585 25.1622 14.9747C25.7494 14.425 26.2644 13.7459 26.6283 13.0349C27.3619 11.6015 27.9839 10.1125 28.6188 8.63281C28.7878 8.23976 28.8563 7.80048 28.9307 7.37622C28.9567 7.22825 28.8634 7.05947 28.8244 6.90051C28.6696 6.95542 28.4795 6.97161 28.366 7.0716C27.1812 8.11202 26.0028 9.15938 24.835 10.2171C23.7458 11.2032 22.6738 12.2078 21.5887 13.1979C21.3908 13.3783 21.1764 13.4968 21.0063 13.1448C20.0943 11.2604 18.607 9.83622 17.0116 8.42819C17.3683 8.10682 17.6649 7.74383 18.0458 7.51552C19.0004 6.94155 19.5302 6.03176 20.0447 5.13469C20.8639 3.70528 21.62 2.23771 22.3447 0.759161C22.6153 0.207162 22.9177 0.111212 23.5196 0.198492C32.03 1.4285 39.0087 7.97908 40.564 16.3007C41.4559 21.0739 40.6733 25.5991 38.2551 29.8446C38.2043 29.9336 38.1446 30.018 38.069 30.1353C37.9142 30.0775 37.7719 30.0197 37.6266 29.9712C37.2338 29.8411 37.1103 29.6706 37.2415 29.2059C38.0288 26.4112 38.3974 23.5466 38.603 20.66C38.623 20.3843 38.6526 20.1075 38.7075 19.8375C38.9774 18.5231 38.6242 17.2579 38.3992 15.9834C38.3767 15.8585 38.2722 15.7394 38.1836 15.6354C36.9969 14.2366 35.7896 12.8552 34.6254 11.439C34.141 10.8495 33.7193 10.2044 33.3224 9.55416C33.0607 9.12585 32.7801 8.87384 32.2308 8.92817C31.7264 8.9773 31.2131 8.93858 30.5433 8.93858C30.7205 9.32122 30.7831 9.64375 30.978 9.84258C31.6224 10.5004 32.284 11.15 32.9993 11.7304C33.4446 12.0916 33.7411 12.4506 33.838 13.0332C34.0501 14.3094 34.7984 15.3637 35.4618 16.4469C35.5622 16.6099 35.6768 16.7654 35.7807 16.9261C36.3047 17.7359 36.2432 18.2451 35.652 19.0052C35.1393 19.6635 34.6277 20.3381 34.2367 21.0681C33.8303 21.8276 33.3318 22.312 32.4618 22.612C30.1304 23.4154 27.8545 24.3714 25.5432 25.2321C23.8941 25.8465 22.2195 26.3974 20.5651 26.9985C20.4239 27.0499 20.3453 27.2667 20.2378 27.4066C20.4121 27.5123 20.5952 27.7222 20.7594 27.7089C22.5846 27.5626 24.4062 27.3771 26.2296 27.2129C26.7748 27.1638 27.3294 27.1846 27.8693 27.106C28.5474 27.0072 29.2184 26.8528 29.8864 26.6968C30.3873 26.5794 30.6638 26.6852 30.9077 27.1962C31.7606 28.9816 32.737 30.711 33.5639 32.5075C33.8752 33.1832 33.926 33.9797 34.0495 34.7282C34.0707 34.8577 33.8924 35.0559 33.7583 35.1687C30.9307 37.5472 27.6832 39.0725 24.0075 39.695C20.2632 40.3291 16.6099 39.9731 13.0594 38.6413C12.6536 38.4893 12.2201 38.4015 12.3453 37.772C12.477 37.1061 12.7971 36.6299 13.3559 36.5218C14.6908 36.2622 16.0299 36.0241 17.3595 35.7415C19.2561 35.338 21.0967 34.7733 22.8185 33.8681C23.4245 33.5491 24.0695 33.2947 24.7151 33.0578C25.1481 32.8982 25.3158 32.6341 25.2621 32.104C23.7588 32.104 22.2491 32.0896 20.7399 32.1092C19.8568 32.1208 18.962 32.1081 18.0949 32.2428C15.7292 32.611 13.3748 32.4052 11.0068 32.3168C9.92708 32.2763 9.58567 31.8347 9.34941 30.9631C8.99264 29.6469 8.38838 28.373 8.20114 27.0389C7.96487 25.3575 7.89577 23.6327 8.71089 21.9999C9.27498 20.8704 9.71562 19.6809 10.1834 18.5075C10.2957 18.2249 10.3553 17.8925 10.3222 17.5954C10.3022 17.4122 10.0907 17.1874 9.907 17.1053C9.78237 17.0498 9.47994 17.1544 9.38898 17.2798C8.28384 18.804 7.10604 20.2907 6.15683 21.9056C5.67603 22.7241 5.56498 23.772 5.38305 24.7344C5.01861 26.6673 5.19935 28.6129 5.54431 30.5215C5.70261 31.4 6.21294 32.2202 6.57916 33.0612C6.80066 33.5699 7.06587 34.06 7.27674 34.5727C7.32872 34.6999 7.24544 34.8802 7.22417 35.0357C7.09068 34.9848 6.92766 34.9658 6.82842 34.8773C3.84436 32.2289 1.78941 29.0209 0.744517 25.2003C-0.46872 20.7618 -0.223001 16.3903 1.6571 12.1962C4.46574 5.93004 9.34114 1.99899 16.1669 0.447036C17.1616 0.221034 18.1917 0.129709 19.2112 0.029135C19.8019 -0.0292439 20.4032 0.0181529 21.1144 0.0181529Z" fill="white"/>
    </g>
    <path fill-rule="evenodd" clip-rule="evenodd" d="M78.1902 19.9414C78.1973 19.1195 78.0119 18.3542 77.459 17.7184C76.5251 16.6445 75.3267 16.3416 73.9646 16.6959C72.6226 17.045 71.873 17.9941 71.6769 19.279C71.459 20.7044 71.7661 22.0338 73.0886 22.8951C74.179 23.6049 75.3686 23.6239 76.5121 23.0199C77.7437 22.3691 78.1861 21.2576 78.1902 19.9414ZM80.2811 19.9526C80.3833 22.9137 78.2173 25.2142 74.8204 25.2176C71.7034 25.2211 69.5168 23.0622 69.5274 20.0034C69.5374 16.8134 71.7081 14.7649 75.0714 14.7695C78.2108 14.7742 80.2847 16.8371 80.2811 19.9526Z" fill="white"/>
    <path fill-rule="evenodd" clip-rule="evenodd" d="M84.9833 16.7617C84.9307 16.8848 84.8941 16.9311 84.8941 16.9773C84.8935 18.9339 84.9035 20.8904 84.8905 22.8464C84.8887 23.151 85.0287 23.2094 85.2727 23.1903C86.0282 23.1331 86.7978 23.1412 87.535 22.9938C89.1652 22.6684 90.0028 21.5627 89.9845 19.8968C89.9662 18.2148 89.1723 17.2235 87.483 16.9305C86.6732 16.79 85.8338 16.8137 84.9833 16.7617ZM82.9062 24.9635V15.0859C82.9423 15.0599 82.9695 15.0229 82.996 15.0234C84.6387 15.0443 86.289 14.976 87.9216 15.1148C90.2341 15.3113 91.8998 17.2008 92.0764 19.4689C92.3611 23.1248 89.3333 25.0138 86.7143 24.9675C85.4603 24.9456 84.2057 24.9635 82.9062 24.9635Z" fill="white"/>
    <path fill-rule="evenodd" clip-rule="evenodd" d="M57.2425 16.0752C56.6968 16.5735 56.2201 17.0087 55.8149 17.3792C55.1274 17.1272 54.4504 16.7688 53.7304 16.6365C51.8054 16.2827 50.2419 17.4133 49.8875 19.3155C49.5189 21.2958 50.7115 23.1252 52.6489 23.3552C53.4091 23.446 54.213 23.2194 54.9909 23.1032C55.1167 23.0842 55.3028 22.8899 55.3093 22.7691C55.3418 22.1513 55.3241 21.5316 55.3241 20.8594H53.3618V19.0814H57.3701C57.3701 20.1195 57.3701 21.1368 57.3701 22.1547C57.3701 22.6223 57.3252 23.0957 57.3819 23.557C57.4457 24.0783 57.2361 24.3355 56.757 24.517C54.9141 25.2159 53.0417 25.5268 51.122 24.8904C48.6459 24.0691 47.4847 21.7605 47.79 19.3219C48.0576 17.1809 49.2035 15.6122 51.3725 15.0163C53.4357 14.4493 55.4292 14.6701 57.2425 16.0752Z" fill="white"/>
    <path fill-rule="evenodd" clip-rule="evenodd" d="M62.3648 20.7634C62.3648 21.5055 62.3654 22.1939 62.3648 22.8829C62.3642 23.2367 62.63 23.1858 62.8533 23.1864C64.0571 23.1893 65.2603 23.1881 66.4641 23.1887C66.7458 23.1887 67.0282 23.1887 67.4021 23.1887C67.4021 23.7297 67.4145 24.2407 67.3885 24.7499C67.3849 24.8239 67.1989 24.9482 67.0967 24.9487C65.0081 24.9603 62.9201 24.9574 60.8315 24.9563C60.6915 24.9563 60.5515 24.9424 60.3672 24.9326V15.0312H67.1363V16.7757H62.3967V18.9415H66.9313C66.9313 19.4403 66.9224 19.8686 66.9343 20.2969C66.9443 20.6483 66.8014 20.7761 66.4304 20.7709C65.1044 20.7518 63.7777 20.7634 62.3648 20.7634Z" fill="white"/>
    <path fill-rule="evenodd" clip-rule="evenodd" d="M106.314 15.9199C105.79 16.3806 105.292 16.8199 104.766 17.2835C104.238 16.7002 103.513 16.4355 102.646 16.5974C102.029 16.7118 101.675 17.017 101.61 17.4863C101.532 18.0522 101.704 18.3609 102.367 18.636C103.064 18.9262 103.793 19.1441 104.498 19.4209C105.743 19.9094 106.351 20.8284 106.29 22.137C106.23 23.4277 105.613 24.3699 104.373 24.8808C102.661 25.5871 100.155 25.1935 99.1719 23.8363C99.6314 23.3456 100.083 22.8636 100.448 22.4728C101.073 22.8 101.588 23.1907 102.167 23.3335C102.6 23.4404 103.168 23.3335 103.582 23.1352C104.429 22.7306 104.418 21.7295 103.599 21.2694C103.235 21.0648 102.821 20.944 102.428 20.7914C101.97 20.6128 101.509 20.4417 101.05 20.2666C99.0898 19.5198 98.997 16.6632 100.634 15.4858C102.125 14.4148 104.948 14.557 106.314 15.9199Z" fill="white"/>
    <path fill-rule="evenodd" clip-rule="evenodd" d="M94.6562 15.0273H96.6007C96.612 15.2048 96.6297 15.3557 96.6297 15.5059C96.6315 18.4856 96.6226 21.4646 96.6403 24.4437C96.6427 24.857 96.5281 24.9986 96.1046 24.9685C95.6338 24.935 95.1589 24.961 94.6562 24.961V15.0273Z" fill="white"/>
</svg>